<?xml version="1.0" encoding="utf-8"?>
<!-- Generator: Adobe Illustrator 24.3.0, SVG Export Plug-In . SVG Version: 6.00 Build 0)  -->
<svg version="1.1" id="Layer_1" xmlns="http://www.w3.org/2000/svg" xmlns:xlink="http://www.w3.org/1999/xlink" x="0px" y="0px"
	 viewBox="0 0 500 500" style="enable-background:new 0 0 500 500;" xml:space="preserve">
<style type="text/css">
	.st0{fill:#2E2170;}
	.st1{fill:#F2F2F2;}
	.st2{fill:#1A1A1A;}
	.st3{fill:#494289;}
	.st4{fill:#333333;}
	.st5{fill:url(#SVGID_1_);}
	.st6{fill:url(#SVGID_2_);}
	.st7{fill:url(#SVGID_3_);}
	.st8{opacity:0.4;fill:url(#SVGID_4_);}
	.st9{fill:url(#SVGID_5_);}
	.st10{fill:url(#SVGID_6_);}
	.st11{fill:url(#SVGID_7_);}
	.st12{fill:url(#SVGID_8_);}
	.st13{fill:url(#SVGID_9_);}
	.st14{opacity:0.4;fill:url(#SVGID_10_);}
	.st15{fill:url(#SVGID_11_);}
	.st16{fill:url(#SVGID_12_);}
	.st17{fill:url(#SVGID_13_);}
	.st18{fill:url(#SVGID_14_);}
	.st19{fill:url(#SVGID_15_);}
	.st20{opacity:0.4;fill:url(#SVGID_16_);}
	.st21{fill:url(#SVGID_17_);}
	.st22{fill:url(#SVGID_18_);}
	.st23{fill:url(#SVGID_19_);}
	.st24{fill:url(#SVGID_20_);}
	.st25{fill:url(#SVGID_21_);}
	.st26{opacity:0.4;fill:url(#SVGID_22_);}
	.st27{fill:url(#SVGID_23_);}
	.st28{fill:url(#SVGID_24_);}
	.st29{fill:url(#SVGID_25_);}
	.st30{fill:url(#SVGID_26_);}
	.st31{fill:url(#SVGID_27_);}
	.st32{opacity:0.4;fill:url(#SVGID_28_);}
	.st33{fill:url(#SVGID_29_);}
	.st34{fill:url(#SVGID_30_);}
	.st35{fill:url(#SVGID_31_);}
	.st36{fill:url(#SVGID_32_);}
	.st37{fill:url(#SVGID_33_);}
	.st38{opacity:0.4;fill:url(#SVGID_34_);}
	.st39{fill:url(#SVGID_35_);}
	.st40{fill:url(#SVGID_36_);}
	.st41{fill:url(#SVGID_37_);}
	.st42{fill:url(#SVGID_38_);}
	.st43{fill:url(#SVGID_39_);}
	.st44{opacity:0.4;fill:url(#SVGID_40_);}
	.st45{fill:url(#SVGID_41_);}
	.st46{fill:url(#SVGID_42_);}
	.st47{fill:url(#SVGID_43_);}
	.st48{fill:url(#SVGID_44_);}
	.st49{fill:url(#SVGID_45_);}
	.st50{opacity:0.4;fill:url(#SVGID_46_);}
	.st51{fill:url(#SVGID_47_);}
	.st52{fill:url(#SVGID_48_);}
	.st53{fill:url(#SVGID_49_);}
	.st54{fill:url(#SVGID_50_);}
	.st55{fill:url(#SVGID_51_);}
	.st56{opacity:0.4;fill:url(#SVGID_52_);}
	.st57{fill:url(#SVGID_53_);}
	.st58{fill:url(#SVGID_54_);}
	.st59{fill:url(#SVGID_55_);}
	.st60{fill:url(#SVGID_56_);}
	.st61{fill:url(#SVGID_57_);}
	.st62{opacity:0.4;fill:url(#SVGID_58_);}
	.st63{fill:url(#SVGID_59_);}
	.st64{fill:url(#SVGID_60_);}
</style>
<g>
	<linearGradient id="SVGID_1_" gradientUnits="userSpaceOnUse" x1="198.2017" y1="176.696" x2="433.0129" y2="176.696">
		<stop  offset="0" style="stop-color:#72A7FF"/>
		<stop  offset="0.3658" style="stop-color:#83BDE2"/>
		<stop  offset="0.759" style="stop-color:#92D0CA"/>
		<stop  offset="1" style="stop-color:#97D7C1"/>
	</linearGradient>
	<path class="st5" d="M396.4,123.2L286.6,59.8c-22.6-13.1-50.6-13.1-73.2,0l-15.2,8.8L433,303.4V186.6
		C433,160.4,419.1,136.3,396.4,123.2z"/>
	<linearGradient id="SVGID_2_" gradientUnits="userSpaceOnUse" x1="66.9871" y1="228.9228" x2="433.0125" y2="228.9228">
		<stop  offset="0" style="stop-color:#4D15FF"/>
		<stop  offset="8.730114e-02" style="stop-color:#4E1FF8"/>
		<stop  offset="0.4876" style="stop-color:#5246DA"/>
		<stop  offset="0.8057" style="stop-color:#555FC8"/>
		<stop  offset="1" style="stop-color:#5668C1"/>
	</linearGradient>
	<path class="st6" d="M198.7,68.3l-95.1,54.9C80.9,136.3,67,160.4,67,186.6v58l307.3,145l22.1-12.8c22.6-13.1,36.6-37.2,36.6-63.4
		v-10.8L198.7,68.3z"/>
	<linearGradient id="SVGID_3_" gradientUnits="userSpaceOnUse" x1="66.9871" y1="347.6724" x2="374.032" y2="347.6724">
		<stop  offset="0" style="stop-color:#4DCCFF"/>
		<stop  offset="7.972515e-02" style="stop-color:#4EBDF8"/>
		<stop  offset="0.3907" style="stop-color:#5186E1"/>
		<stop  offset="0.6587" style="stop-color:#545ECF"/>
		<stop  offset="0.8707" style="stop-color:#5545C5"/>
		<stop  offset="1" style="stop-color:#563CC1"/>
	</linearGradient>
	<path class="st7" d="M67,245.3v68.1c0,26.2,14,50.3,36.6,63.4l109.8,63.4c22.6,13.1,50.6,13.1,73.2,0l87.4-50.5L67,245.3z"/>
	<linearGradient id="SVGID_4_" gradientUnits="userSpaceOnUse" x1="316.9857" y1="211.162" x2="433.0129" y2="211.162">
		<stop  offset="0" style="stop-color:#72A7FF"/>
		<stop  offset="0.3658" style="stop-color:#83BDE2"/>
		<stop  offset="0.759" style="stop-color:#92D0CA"/>
		<stop  offset="1" style="stop-color:#97D7C1"/>
	</linearGradient>
	<path class="st8" d="M433,303.4V186.6c0-26.2-14-50.3-36.6-63.4l-7.4-4.3l-72,68.4L433,303.4z"/>
	<g>
		
			<image style="overflow:visible;opacity:8.000000e-02;" width="1048" height="895" xlink:href="25AD4EA6E85360CB.png"  transform="matrix(0.24 0 0 0.24 185.6 176.8)">
		</image>
		<g>
			<linearGradient id="SVGID_5_" gradientUnits="userSpaceOnUse" x1="193.8038" y1="288.2655" x2="433.0125" y2="288.2655">
				<stop  offset="0" style="stop-color:#4D15FF"/>
				<stop  offset="8.730114e-02" style="stop-color:#4E1FF8"/>
				<stop  offset="0.4876" style="stop-color:#5246DA"/>
				<stop  offset="0.8057" style="stop-color:#555FC8"/>
				<stop  offset="1" style="stop-color:#5668C1"/>
			</linearGradient>
			<path class="st9" d="M374.3,389.6l22.1-12.8c22.6-13.1,36.6-37.2,36.6-63.4v-10.8L317.4,187L193.8,304.4L374.3,389.6z"/>
		</g>
	</g>
	<linearGradient id="SVGID_6_" gradientUnits="userSpaceOnUse" x1="112.3105" y1="377.3919" x2="374.032" y2="377.3919">
		<stop  offset="0" style="stop-color:#4DCCFF"/>
		<stop  offset="7.972515e-02" style="stop-color:#4EBDF8"/>
		<stop  offset="0.3907" style="stop-color:#5186E1"/>
		<stop  offset="0.6587" style="stop-color:#545ECF"/>
		<stop  offset="0.8707" style="stop-color:#5545C5"/>
		<stop  offset="1" style="stop-color:#563CC1"/>
	</linearGradient>
	<path class="st10" d="M286.6,440.2l87.4-50.5l-180.6-84.9l-81.1,77l101.1,58.4C236,453.3,264,453.3,286.6,440.2z"/>
</g>
</svg>
